<?xml version="1.0" standalone="no"?><!DOCTYPE svg PUBLIC "-//W3C//DTD SVG 1.1//EN" "http://www.w3.org/Graphics/SVG/1.1/DTD/svg11.dtd"><svg class="icon" width="128px" height="128.00px" viewBox="0 0 1024 1024" version="1.1" xmlns="http://www.w3.org/2000/svg"><path fill="currentColor" d="M731.3408 665.7024c1.91488 0 3.49184 1.59744 3.49184 3.5328 0 0.24576-0.0512 0.48128-0.1024 0.72704v77.16864a405.97504 405.97504 0 0 1 27.96544-0.38912C873.0624 748.6464 962.56 842.07616 962.56 953.50784A202.87488 202.87488 0 0 1 956.37504 1003.52c-25.99936-80.50688-101.30432-138.02496-190.12608-139.6736a367.6672 367.6672 0 0 0-31.46752 0.72704V944.128c0.0512 0.24576 0.1024 0.48128 0.1024 0.72704 0 1.9456-1.5872 3.5328-3.50208 3.5328a3.3792 3.3792 0 0 1-2.9696-1.6896v0.33792l-193.4336-136.47872h1.00352A3.5328 3.5328 0 0 1 532.48 807.0144a3.584 3.584 0 0 1 1.96608-3.19488l193.91488-136.76544v0.33792c0.6144-1.01376 1.72032-1.6896 2.9696-1.6896zM168.96 501.76a35.84 35.84 0 0 1 35.84 35.84V890.88h266.24v0.36864a35.84 35.84 0 0 1 0 70.94272V962.56H184.32a51.2 51.2 0 0 1-51.2-51.2V537.6a35.84 35.84 0 0 1 35.84-35.84zM604.16 491.52a51.2 51.2 0 0 1 51.2 51.2v92.16a30.72 30.72 0 0 1-61.44 0v-81.92H430.08l0.01024 48.55808c0.08192 0.8704 0.11264 1.75104 0.11264 2.64192v153.6a30.72 30.72 0 1 1-61.44 0V624.64H368.64v-81.92a51.2 51.2 0 0 1 51.2-51.2h184.32z m261.24288 3.9936a35.84 35.84 0 0 1 35.84 35.84v56.32a10.24 10.24 0 0 1-10.24 10.24h-51.2a10.24 10.24 0 0 1-10.24-10.24v-56.32a35.84 35.84 0 0 1 35.84-35.84zM543.21152 35.4816l409.09824 409.10848a35.84 35.84 0 0 1-50.688 50.688l-387.3792-387.3792a10.24 10.24 0 0 0-13.5168-0.86016l-0.96256 0.86016-387.3792 387.3792a35.84 35.84 0 1 1-50.688-50.688L470.80448 35.47136a51.2 51.2 0 0 1 72.3968 0z"  /></svg>